<svg xmlns="http://www.w3.org/2000/svg" viewBox="0 0 750 500"><defs><style>.cls-1{isolation:isolate;}.cls-2,.cls-22{fill:none;stroke-linecap:round;stroke-linejoin:round;}.cls-2{stroke:#000;stroke-dasharray:5 5;}.cls-3{fill:#d9e4f9;}.cls-4{fill:#cad5ef;}.cls-5{fill:#7b85e8;}.cls-6{fill:#6265ce;}.cls-7{fill:#383d84;}.cls-8{fill:#252a5e;}.cls-9{fill:#5fc5a9;}.cls-10{fill:#c1eadc;}.cls-10,.cls-11{mix-blend-mode:multiply;}.cls-11{fill:#cdd7ff;}.cls-12{fill:#93d8c3;}.cls-13{fill:#ffb552;}.cls-14{fill:#d35d57;}.cls-15,.cls-16{fill:#fff;}.cls-16{opacity:0.3;mix-blend-mode:overlay;}.cls-17{fill:#f78721;}.cls-18{fill:#ebf0fc;}.cls-19{fill:#a33636;}.cls-20{fill:#162a45;}.cls-21{fill:#4d52a8;}.cls-22{stroke:#f78721;stroke-width:2px;}.cls-23{fill:#b54340;}.cls-24{fill:#a9b3ff;}.cls-25{fill:#33896e;}</style></defs><g class="cls-1"><g id="OBJECTS"><path class="cls-2" d="M449.87,83.63C452.38,72.2,464,64.37,475.61,63.28s23.17,3.34,33.29,9.22,19.34,13.24,29.59,18.89a103.27,103.27,0,0,0,65,11.52c6.28-1,12.69-2.63,17.65-6.61s8.13-10.75,6.26-16.82c-2.21-7.22-11.27-11-18.42-8.56s-11.91,9.83-12.5,17.36,2.47,15,7.06,21c13.7,17.9,38.39,22.64,57,35.41A74.83,74.83,0,0,1,679.8,248.84c-16.5,24-46.28,37.5-58.85,63.73a59.49,59.49,0,0,0-4.1,39.48"/><path class="cls-2" d="M367.76,89.93A62.1,62.1,0,0,1,308,82.71c-7-5.19-12.86-11.85-19.83-17.11s-15.7-9.18-24.29-7.58c-6.17,1.15-11.84,5.39-14.08,11.25s-.6,13.18,4.34,17.06,12.89,3.52,17-1.19c4.93-5.58,3.14-14.85-2-20.24s-12.63-7.76-19.87-9.52C231.21,51,212,49.14,194.07,54.08s-34.49,17.53-40.65,35.1.33,39.72,16.78,48.43"/><path class="cls-2" d="M175.35,181.94a103,103,0,0,1-71.67,105.3c-6.69,2.12-13.88,3.55-20.7,1.9s-13.13-7.07-13.91-14,5.82-14.35,12.67-12.81c5.15,1.15,8.47,6.6,8.72,11.88s-1.92,10.35-4.41,15C77,306.18,62.85,321.1,59.2,340c-3.41,17.66,3.38,36.48,15.8,49.49s29.92,20.51,47.76,22.84,36.05-.21,53.37-5.09"/><path d="M62.58,293.29c-2.37,0-5.56,2.08-5.56,6.94,0,2.54,1.45,7.87,5.56,10.64,4.11-2.77,5.55-8.1,5.55-10.64C68.13,295.37,65,293.29,62.58,293.29Zm0,8.79a2.95,2.95,0,1,1,3-2.95A2.95,2.95,0,0,1,62.58,302.08Z"/><path d="M260.82,30.59c-2.37,0-5.56,2.09-5.56,6.94,0,2.55,1.45,7.87,5.56,10.64,4.11-2.77,5.55-8.09,5.55-10.64C266.37,32.68,263.19,30.59,260.82,30.59Zm0,8.79a3,3,0,1,1,2.95-3A2.95,2.95,0,0,1,260.82,39.38Z"/><path d="M611.63,44.23c-2.37,0-5.55,2.09-5.55,6.94,0,2.55,1.44,7.87,5.55,10.65,4.11-2.78,5.56-8.1,5.56-10.65C617.19,46.32,614,44.23,611.63,44.23Zm0,8.79a3,3,0,1,1,3-3A2.95,2.95,0,0,1,611.63,53Z"/><path d="M683.7,130.69c-2.37,0-5.56,2.08-5.56,6.94,0,2.54,1.45,7.86,5.56,10.64,4.11-2.78,5.55-8.1,5.55-10.64C689.25,132.77,686.07,130.69,683.7,130.69Zm0,8.79a2.95,2.95,0,1,1,2.95-2.95A2.95,2.95,0,0,1,683.7,139.48Z"/><circle class="cls-3" cx="470.52" cy="282.36" r="133.42"/><path class="cls-4" d="M593.8,312.14l1.83,3.95a18.14,18.14,0,0,0-4.88-3.49A18.9,18.9,0,0,0,572.17,314c-8,5.56-10.43,16.32-16.51,24A30.11,30.11,0,0,1,530,349.14c-8.56-.74-16.4-5.16-23.16-10.48-5.64-4.44-10.83-9.63-17.29-12.8s-14.77-3.87-20.43.56c-7.13,5.6-7,16.35-11.43,24.28a23.29,23.29,0,0,1-16.75,11.57c-9.07,1.32-18-2.85-27.19-3.18-11.67-.44-22.57,5.29-32.83,10.85-2.4,1.31-4.86,2.67-7.26,4.12a133.45,133.45,0,0,0,226.64-60.43A39.2,39.2,0,0,0,593.8,312.14Z"/><path class="cls-4" d="M501.87,164.21c1.28,2.78,3.11,5.54,2.93,8.6-.23,3.69-3.34,6.56-6.61,8.29s-6.93,2.77-9.86,5-5,6.3-3.45,9.65c1.36,2.89,4.81,4.11,8,4.59s6.54.59,9.21,2.35c4,2.63,5,7.92,6.73,12.38s6.09,9.07,10.58,7.42c5.72-2.09,6.08-12.47,12.17-12.58,2.15,0,4,1.41,5.66,2.78l12.65,10.5c2,1.68,4.16,3.5,5,6,2.21,7-6.8,12.82-7.11,20.12-.21,4.7,3.22,8.68,6.43,12.12,4.29,4.59,8.66,9.25,14.07,12.46a33.44,33.44,0,0,0,19.66,4.54,34.34,34.34,0,0,0,15.75-5.5c-.24-3.33-.6-6.68-1.1-10A133.45,133.45,0,0,0,499.63,152.13,25.72,25.72,0,0,0,501.87,164.21Z"/><path class="cls-4" d="M428.82,177c5.28-5.21,12-8.77,17.24-14a36.58,36.58,0,0,0,8.3-13c-1.08.13-2.17.28-3.27.44A133.41,133.41,0,0,0,338,297.3c3.24.92,6.5,1.77,9.72,2.59l15.62,4c5.25,1.34,10.83,2.68,16,1,6-1.94,10-7.45,14.32-12.1s10.37-8.94,16.48-7.3c8.71,2.32,11.12,14.76,19.57,17.89,7.09,2.64,14.71-2.66,19.25-8.71s7.84-13.36,14.14-17.55c4.5-3,10-4,15.27-5.12s10.75-2.51,14.83-6.06,6.21-9.89,3.42-14.52c-3.11-5.14-10.23-5.76-15.29-9-9.86-6.3-10.46-21.32-19.67-28.52-5.78-4.53-13.63-5-20.88-6.14s-15.25-4-18.09-10.81S423.54,182.19,428.82,177Z"/><path class="cls-4" d="M518,271c-7.92,4.34-22,7.56-20.89,19.39.47,4.85,4.09,8.72,7.52,12.18q6,6.07,12,12.13a31.25,31.25,0,0,0,6.35,5.37,16.12,16.12,0,0,0,20-3.76c3.31-4.14,4.3-9.7,4.2-15a37.56,37.56,0,0,0-6.6-21.06C535.37,273,526.58,266.28,518,271Z"/><path class="cls-5" d="M157.29,296.23l2.2-1.05a22.81,22.81,0,0,0-31.21-4,24.69,24.69,0,0,0,29,5Z"/><path class="cls-5" d="M168.54,298.74l3.38,2a29.39,29.39,0,0,0-6.39-25.51,15.11,15.11,0,0,0-2.72,15.1C164,293.5,166.31,296.15,168.54,298.74Z"/><path class="cls-5" d="M170.62,300.58l-.88-.74a25.58,25.58,0,0,0-23.8,10.86c4.4,1.77,9.52,1,13.75-1.13S167.42,304.08,170.62,300.58Z"/><path class="cls-5" d="M185.92,309.28c2.67-4.48,2.58-10.18,1-15.14s-4.62-9.33-7.61-13.6c-3.37,3.65-3.94,9.25-2.6,14s4.29,8.95,7.33,12.89Z"/><path class="cls-5" d="M179.54,315.35a52.75,52.75,0,0,0,5.24-6.38l-1.61-.6a21.58,21.58,0,0,0-23.89,11.05c4.43.88,9.08,1.75,13.37.37A17.82,17.82,0,0,0,179.54,315.35Z"/><path class="cls-5" d="M194.15,317.29l2.1,1.75c3.55-3.53,4.86-8.84,4.61-13.84s-1.9-9.81-3.53-14.55a20.86,20.86,0,0,0-3.18,26.64Z"/><path class="cls-5" d="M194.9,329.64a10.39,10.39,0,0,0,4.24-5.34L197.38,322a23.29,23.29,0,0,0-24.77,6.59,22.69,22.69,0,0,0,15.8,3.45A16.18,16.18,0,0,0,194.9,329.64Z"/><path class="cls-5" d="M205.31,331.91,206.8,334c3.32-4.14,6.33-9,6.31-14.28,0-4.6-2.3-8.86-4.53-12.89a20.29,20.29,0,0,0-3.27,25.08Z"/><path class="cls-5" d="M209.41,338.11l-2.29-3a33.06,33.06,0,0,0-26.27,5c3.17,4.47,9.08,6.57,14.53,5.91S205.77,342.22,209.41,338.11Z"/><path class="cls-5" d="M222.75,323.69a18.7,18.7,0,0,0-10.18,20.52l1.88,2.74a16.2,16.2,0,0,0,8.3-23.26Z"/><path class="cls-5" d="M202.32,348a25.56,25.56,0,0,0-13.41,5c3.27,4.11,8.82,6,14.06,5.67a25.84,25.84,0,0,0,14.25-6.18l-.93-1.39A25.65,25.65,0,0,0,202.32,348Z"/><path class="cls-6" d="M140.39,293.53a.66.66,0,0,1,.62-.69,59.25,59.25,0,0,1,28.27,5.64l-4.07-15.6a.66.66,0,1,1,1.27-.33l4.34,16.66a76.5,76.5,0,0,1,13.5,8.48,31.07,31.07,0,0,0-4.43-17.23.66.66,0,0,1,1.12-.68,32.33,32.33,0,0,1,4.58,18.8s0,.07,0,.1a88.12,88.12,0,0,1,8.81,8.24L195.84,299a.66.66,0,0,1,1.31.1l-1.53,18.81a.67.67,0,0,1-.1.28,112.07,112.07,0,0,1,9.39,12,63.6,63.6,0,0,0,1.39-14.82.65.65,0,0,1,.63-.67.66.66,0,0,1,.68.64,65.52,65.52,0,0,1-1.68,16.34c2.66,4,5.1,8.13,7.36,12.29a67.46,67.46,0,0,0,5.91-13.86.66.66,0,0,1,1.26.37A69.34,69.34,0,0,1,214,345.29c4.17,7.83,7.71,15.75,10.93,23.2a.65.65,0,0,1-.34.86l-.07,0a.66.66,0,0,1-.79-.37c-2.28-5.28-4.73-10.8-7.44-16.35l-.78.24a41.91,41.91,0,0,1-17.14,1.45.65.65,0,0,1-.57-.73.65.65,0,0,1,.73-.57,40.71,40.71,0,0,0,17.16-1.59c-2.37-4.78-4.95-9.58-7.81-14.26a138.62,138.62,0,0,1-17.2,2.72.67.67,0,0,1-.72-.6.65.65,0,0,1,.6-.71,139,139,0,0,0,16.6-2.59,124.6,124.6,0,0,0-8.64-12.28,37,37,0,0,1-7,2.87,37.85,37.85,0,0,1-10,1.6.66.66,0,0,1,0-1.31,36.77,36.77,0,0,0,16.14-4.19c-1.36-1.66-2.76-3.28-4.22-4.85a87.36,87.36,0,0,0-9.32-8.63l-17.38,7.44-.07,0a.66.66,0,0,1-.79-.37.65.65,0,0,1,.34-.86L183,308.31a76.16,76.16,0,0,0-12.49-7.81l0,0a81.1,81.1,0,0,1-15.21,7.21h0a.65.65,0,0,1-.41-1.24,80.87,80.87,0,0,0,14.26-6.68,58.09,58.09,0,0,0-28-5.67A.67.67,0,0,1,140.39,293.53Z"/><path class="cls-7" d="M607.92,227.51l1.27,2.08a22.81,22.81,0,0,0,.74-31.45,24.69,24.69,0,0,0-2,29.37Z"/><path class="cls-7" d="M606.58,239,605,242.53a29.41,29.41,0,0,0,24.72-9,15.12,15.12,0,0,0-15.3-1.16C611.33,233.94,608.92,236.48,606.58,239Z"/><path class="cls-7" d="M605,241.22l.64-.95a25.54,25.54,0,0,0-13.24-22.57c-1.31,4.56,0,9.57,2.54,13.57S601.15,238.39,605,241.22Z"/><path class="cls-7" d="M597.88,257.33c4.72,2.2,10.39,1.53,15.15-.6s8.81-5.55,12.75-9c-4-3-9.61-3-14.24-1.15s-8.46,5.19-12.07,8.61Z"/><path class="cls-7" d="M591.18,251.6a52.57,52.57,0,0,0,6.88,4.56l.44-1.66a21.61,21.61,0,0,0-13.44-22.63c-.42,4.49-.82,9.21,1,13.34A17.73,17.73,0,0,0,591.18,251.6Z"/><path class="cls-7" d="M590.76,266.34l-1.53,2.27c3.87,3.17,9.28,3.93,14.23,3.16s9.57-2.9,14.11-5a20.84,20.84,0,0,0-26.81-.43Z"/><path class="cls-7" d="M578.54,268.35a10.43,10.43,0,0,0,5.75,3.67l2.15-2a23.28,23.28,0,0,0-9.09-24,22.62,22.62,0,0,0-1.82,16.07A16.25,16.25,0,0,0,578.54,268.35Z"/><path class="cls-7" d="M577.36,278.94l-1.94,1.69c4.46,2.88,9.58,5.38,14.86,4.82,4.58-.49,8.57-3.2,12.35-5.83a20.24,20.24,0,0,0-25.27-.68Z"/><path class="cls-7" d="M571.6,283.66l2.76-2.6a33.07,33.07,0,0,0-7.66-25.61c-4.13,3.61-5.61,9.7-4.39,15.05S567.15,280.45,571.6,283.66Z"/><path class="cls-7" d="M587.31,295.45a18.67,18.67,0,0,0-21.45-8l-2.53,2.15a16.21,16.21,0,0,0,24,5.88Z"/><path class="cls-7" d="M561,277.62a25.62,25.62,0,0,0-6.32-12.84c-3.75,3.69-5.1,9.4-4.19,14.58a25.88,25.88,0,0,0,7.6,13.54l1.29-1.07A25.69,25.69,0,0,0,561,277.62Z"/><path class="cls-8" d="M608.87,210.43a.65.65,0,0,1,.75.54,59.18,59.18,0,0,1-2.7,28.7L622,234a.67.67,0,0,1,.85.38.66.66,0,0,1-.39.85l-16.12,6a77.06,77.06,0,0,1-7.06,14.29A31,31,0,0,0,616,249.4a.66.66,0,1,1,.79,1,32.38,32.38,0,0,1-18.23,6.48h-.11a87.68,87.68,0,0,1-7.28,9.61l18-.39a.66.66,0,0,1,0,1.31l-18.86.41a.57.57,0,0,1-.29-.07,114.89,114.89,0,0,1-11,10.57,63.84,63.84,0,0,0,14.88-.14.66.66,0,1,1,.17,1.3,65,65,0,0,1-16.43,0c-3.71,3.06-7.56,5.91-11.47,8.58a68.62,68.62,0,0,0,14.4,4.46.66.66,0,0,1-.24,1.29A69.59,69.59,0,0,1,564.94,289c-7.36,4.95-14.88,9.29-22,13.26a.65.65,0,0,1-.89-.25l0-.07a.68.68,0,0,1,.29-.83c5-2.81,10.26-5.81,15.5-9.08-.11-.24-.22-.49-.32-.74a42.08,42.08,0,0,1-3.2-16.91.66.66,0,0,1,1.31,0A40.64,40.64,0,0,0,559,291.3c4.52-2.85,9-5.91,13.38-9.23a139.61,139.61,0,0,1-4.46-16.84.66.66,0,0,1,1.29-.25,136.31,136.31,0,0,0,4.28,16.25,124.17,124.17,0,0,0,11.32-9.85A37.77,37.77,0,0,1,578.6,255a.65.65,0,0,1,1.3-.16,36.72,36.72,0,0,0,5.83,15.63c1.5-1.52,3-3.08,4.39-4.7a87.28,87.28,0,0,0,7.62-10.15L588.56,239s0,0,0-.07a.65.65,0,0,1,1.17-.57l8.84,15.91A75.56,75.56,0,0,0,605,241.08a0,0,0,0,0,0,0,81.87,81.87,0,0,1-8.73-14.4l0,0a.67.67,0,0,1,.33-.85.65.65,0,0,1,.87.32,81,81,0,0,0,8.1,13.5,58,58,0,0,0,2.78-28.42A.65.65,0,0,1,608.87,210.43Z"/><path class="cls-9" d="M620.1,336.2a79.58,79.58,0,0,1,44.29-6.35,51.72,51.72,0,0,1-40.77,33,39.83,39.83,0,0,1-11.69.1c-3.16-.46-7.35-1.19-9.49-3.8-4.38-5.34,2.62-12.85,6.47-16.1A48.83,48.83,0,0,1,620.1,336.2Z"/><path class="cls-10" d="M630.85,361.18a39.09,39.09,0,0,1-7.7-3,12.41,12.41,0,0,1-5.26-4.43q4-1.22,8.05-2.81a27.89,27.89,0,0,0,12.25,7.44l1-.51a27.1,27.1,0,0,1-12.5-7.24c1.41-.57,2.83-1.16,4.26-1.79l2.28-1a31.22,31.22,0,0,0,11.81,6.63l.8-.55A30.54,30.54,0,0,1,634,347.43q3.25-1.53,6.44-3.21a.24.24,0,0,0,.06.08,20.44,20.44,0,0,0,10,5.82l.68-.62a19.81,19.81,0,0,1-10.09-5.64q3-1.58,5.88-3.24a20.12,20.12,0,0,0,8.6,4.25l.54-.66a19.3,19.3,0,0,1-8.44-4c1.45-.83,2.88-1.67,4.31-2.53a21.06,21.06,0,0,0,7.21,2.3l.46-.71a20.43,20.43,0,0,1-6.91-2q2.1-1.26,4.17-2.55a18.11,18.11,0,0,0,4.91.83l.39-.76a17.26,17.26,0,0,1-4.42-.61q3.27-2,6.49-4.1l.07-.18-1-.14q-2.83,1.82-5.72,3.61a16.47,16.47,0,0,1,.54-4.12l-.78,0a17.12,17.12,0,0,0-.52,4.56s0,0,0,.07c-1.49.92-3,1.85-4.51,2.76a19.33,19.33,0,0,1,.93-7.51h-.8a20,20,0,0,0-.85,7.94q-2.13,1.27-4.27,2.51a22.38,22.38,0,0,1-.17-10.23l-.79.06a23,23,0,0,0,.28,10.57q-3.09,1.77-6.23,3.43a24.45,24.45,0,0,1,0-13.28l-.82.14a25.19,25.19,0,0,0,0,13.21,2.45,2.45,0,0,0,.08.29c-2.1,1.1-4.23,2.16-6.37,3.17a60.53,60.53,0,0,1-.6-10.93,17.1,17.1,0,0,1,.62-4.43l-.85.23a18.07,18.07,0,0,0-.53,4.18,61.69,61.69,0,0,0,.63,11.28l-2.07.95q-2.26,1-4.5,1.88a29.09,29.09,0,0,1,.85-16.58l-.92.33a29.91,29.91,0,0,0-.65,16.54q-4,1.54-7.84,2.73a25.56,25.56,0,0,1,1.5-16.36l-1,.51a26.29,26.29,0,0,0-1.19,16.06q-4.1,1.22-8.09,2a19.17,19.17,0,0,1,.64-8.4,45.46,45.46,0,0,1,2.23-6l-1.21.88a40.38,40.38,0,0,0-1.75,4.87,19.89,19.89,0,0,0-.66,8.76h0c-2.31.46-4.6.8-6.85,1.05a5.26,5.26,0,0,0,.21.75q3.3-.37,6.68-1a26.52,26.52,0,0,0,7.53,7.05c.52,0,1,0,1.56,0a26,26,0,0,1-8.27-7.26c2.72-.55,5.48-1.24,8.26-2.08,1.28,2.38,3.69,3.86,5.66,4.88a39.67,39.67,0,0,0,6.69,2.74C629.94,361.45,630.4,361.32,630.85,361.18Z"/><path class="cls-11" d="M141.58,370.68a133.2,133.2,0,0,1-48.52-57,86.5,86.5,0,0,1,83,28.26,66.41,66.41,0,0,1,10.58,16.45c2.15,4.87,4.87,11.45,3.08,16.82-3.64,10.95-20.51,7.75-28.55,5.2A81.21,81.21,0,0,1,141.58,370.68Z"/><path class="cls-11" d="M167.32,333.17a65.89,65.89,0,0,1,2.6,13.6c.28,3.43.34,7.79-1.57,11.38q-5.28-4.54-11.17-8.87a46.68,46.68,0,0,0-.41-24c-.53-.34-1.08-.67-1.62-1a45.45,45.45,0,0,1,.91,24.15c-2.06-1.49-4.16-3-6.33-4.43-1.16-.78-2.33-1.55-3.5-2.31a52.18,52.18,0,0,0-1.16-22.62l-1.5-.65A50.91,50.91,0,0,1,145.05,341q-5.07-3.24-10.28-6.25a.52.52,0,0,0,.06-.15,34.2,34.2,0,0,0-.73-19.4l-1.49-.41a33,33,0,0,1,1,19.32q-4.87-2.79-9.84-5.43a33.51,33.51,0,0,0-1.66-16l-1.41-.17A32.4,32.4,0,0,1,122.6,328q-3.69-1.95-7.42-3.83A35.23,35.23,0,0,0,112,312l-1.41,0a34.3,34.3,0,0,1,3.26,11.61q-3.66-1.85-7.33-3.63a30.32,30.32,0,0,0-3.2-7.68l-1.43.12a29.19,29.19,0,0,1,3.08,6.81q-5.81-2.81-11.58-5.53l-.33.06c.22.51.46,1,.69,1.52,3.39,1.61,6.8,3.22,10.21,4.87a27.34,27.34,0,0,1-6.3,2.92c.2.38.41.76.62,1.14a28.35,28.35,0,0,0,6.92-3.34l.09-.07c2.64,1.28,5.29,2.59,7.92,3.91A32,32,0,0,1,101.77,330l.72,1.13a33.48,33.48,0,0,0,12-5.88q3.69,1.86,7.35,3.79a37.32,37.32,0,0,1-14.32,9.39l.8,1.06a38.63,38.63,0,0,0,14.7-9.83q5.25,2.79,10.41,5.75a40.8,40.8,0,0,1-18.79,11.83l.93,1a42.27,42.27,0,0,0,18.65-11.84l.34-.38c3.43,2,6.83,4.05,10.17,6.19a103.15,103.15,0,0,1-14.92,10.6,28.33,28.33,0,0,1-6.83,3.06l1.08,1a31.88,31.88,0,0,0,6.39-3,104.77,104.77,0,0,0,15.4-11l3.18,2.09c2.29,1.54,4.51,3.11,6.68,4.69a48.66,48.66,0,0,1-24.2,13.59c.42.34.84.68,1.27,1a50.09,50.09,0,0,0,24-13.84q5.72,4.21,10.86,8.65a42.73,42.73,0,0,1-24.48,12.48l1.65,1A44,44,0,0,0,168.56,360q5.38,4.69,10.11,9.62a32.11,32.11,0,0,1-12.46,6.6,75.24,75.24,0,0,1-10.42,2.15c.77.33,1.54.63,2.32.93a70.31,70.31,0,0,0,8.47-1.86,33.41,33.41,0,0,0,13-6.89h0q4.05,4.31,7.6,8.75a8.78,8.78,0,0,0,.86-1q-3.47-4.33-7.42-8.54a44.34,44.34,0,0,0,3.26-16.94c-.44-.76-.88-1.51-1.34-2.25a43.28,43.28,0,0,1-2.89,18.18q-4.81-5-10.31-9.83c2.22-3.93,2.16-8.66,1.85-12.35a66.44,66.44,0,0,0-2.09-11.91C168.51,334.22,167.92,333.69,167.32,333.17Z"/><path class="cls-12" d="M592.05,321.51a109.47,109.47,0,0,1,46.83-39.87,71.09,71.09,0,0,1-23.22,68.23,55.14,55.14,0,0,1-13.52,8.69c-4,1.76-9.41,4-13.82,2.53-9-3-6.37-16.86-4.27-23.46A66.44,66.44,0,0,1,592.05,321.51Z"/><path class="cls-10" d="M622.87,342.67a54.16,54.16,0,0,1-11.17,2.13c-2.82.23-6.4.28-9.35-1.29,2.48-2.89,4.91-6,7.29-9.18a38.29,38.29,0,0,0,19.68-.33c.28-.44.55-.89.82-1.34a37.25,37.25,0,0,1-19.84.75q1.85-2.54,3.64-5.2c.64-.95,1.27-1.91,1.9-2.88a42.85,42.85,0,0,0,18.58-.95l.54-1.23a42,42,0,0,1-18.51,1.22q2.65-4.17,5.13-8.45l.12.05a28.24,28.24,0,0,0,15.95-.6c.11-.41.23-.82.34-1.23a27.09,27.09,0,0,1-15.88.85q2.29-4,4.46-8.08a27.61,27.61,0,0,0,13.11-1.37c.06-.39.1-.77.15-1.16a26.64,26.64,0,0,1-12.74,1.54q1.6-3,3.15-6.1a29.11,29.11,0,0,0,10.07-2.61c0-.39,0-.78,0-1.17a28.17,28.17,0,0,1-9.54,2.69c1-2,2-4,3-6a24.87,24.87,0,0,0,6.31-2.63c0-.39-.06-.78-.1-1.17a23.83,23.83,0,0,1-5.59,2.53c1.54-3.18,3-6.35,4.54-9.52a2.56,2.56,0,0,1,0-.27c-.42.18-.83.38-1.25.57q-2,4.19-4,8.39a22.38,22.38,0,0,1-2.4-5.18l-.94.51a23.71,23.71,0,0,0,2.74,5.69l.07.07c-1.06,2.17-2.13,4.35-3.22,6.51a26.47,26.47,0,0,1-4.43-9.4l-.92.59a27.5,27.5,0,0,0,4.83,9.86q-1.53,3-3.12,6a30.61,30.61,0,0,1-7.71-11.77l-.88.65a31.8,31.8,0,0,0,8.08,12.08q-2.28,4.32-4.72,8.56a33.6,33.6,0,0,1-9.73-15.44l-.85.76a34.85,34.85,0,0,0,9.73,15.33l.31.28q-2.44,4.23-5.08,8.35a83.53,83.53,0,0,1-8.71-12.26,23.22,23.22,0,0,1-2.52-5.61c-.28.29-.56.59-.83.89a25.91,25.91,0,0,0,2.44,5.25,85.94,85.94,0,0,0,9,12.65c-.56.88-1.14,1.75-1.72,2.62-1.26,1.88-2.55,3.7-3.85,5.49a40.05,40.05,0,0,1-11.17-19.89c-.28.34-.55.69-.82,1A41.08,41.08,0,0,0,608.6,334c-2.31,3.13-4.69,6.11-7.11,8.92a35,35,0,0,1-10.25-20.12c-.29.45-.57.91-.85,1.36a36.27,36.27,0,0,0,10.4,19.55q-3.85,4.43-7.91,8.3a26.4,26.4,0,0,1-5.41-10.23,62.37,62.37,0,0,1-1.78-8.57c-.26.63-.51,1.27-.76,1.91a59,59,0,0,0,1.53,6.95,27.35,27.35,0,0,0,5.67,10.66l0,0q-3.52,3.33-7.19,6.24a6.67,6.67,0,0,0,.79.71q3.57-2.85,7-6.09a36.37,36.37,0,0,0,13.92,2.67c.62-.35,1.24-.72,1.85-1.1a35.51,35.51,0,0,1-14.94-2.37q4.13-4,8.08-8.48c3.23,1.83,7.11,1.78,10.14,1.53a55.42,55.42,0,0,0,9.79-1.72C622,343.64,622.44,343.16,622.87,342.67Z"/><circle class="cls-13" cx="509.31" cy="315.75" r="54.5" transform="translate(40.32 688.77) rotate(-70.3)"/><path class="cls-14" d="M469.13,291.56s-1.4,49.2,68.38,70.84a54.62,54.62,0,0,0,24.37-32.23S528,284.79,474,283.4Z"/><path class="cls-14" d="M462.62,287.64c-.65,1.07-1.25,2.16-1.81,3.26,2,.14,4.87.17,5.95-.76l6.76-8.55a22.88,22.88,0,0,0,.49-7.38A54.24,54.24,0,0,0,462.62,287.64Z"/><path class="cls-14" d="M457.11,331.44h0a54.41,54.41,0,0,0,12.11,21.26l0,.06c.54.58,1.09,1.15,1.66,1.71l.14.14c.55.54,1.11,1.07,1.69,1.59l.2.18c.57.51,1.15,1,1.74,1.49l.23.19c.6.48,1.21.95,1.83,1.42l.22.16c.63.46,1.28.92,1.94,1.36l.15.1c.69.46,1.39.91,2.11,1.34s1.28.75,1.93,1.11l.29.16c.62.33,1.24.65,1.87,1l.34.17c.64.31,1.27.6,1.91.88l.23.1q1,.42,2,.81l.08,0c.67.26,1.35.5,2,.73l.28.09c.66.23,1.33.43,2,.63l.26.07c.7.2,1.39.39,2.09.56h0l2.19.48h.06c.71.14,1.43.26,2.14.38l.19,0c.72.1,1.43.2,2.15.28h.11c1.5.16,3,.26,4.49.3h0c.75,0,1.49,0,2.23,0h.09a54.18,54.18,0,0,0,6.74-.53s-55.07-18.31-53-63.77c.75-5.63,1.51-10.91,1.51-10.91a42.17,42.17,0,0,0-8.68,6.28A54.55,54.55,0,0,0,457.11,331.44Z"/><path class="cls-14" d="M535.61,268l-.35-.19c-.59-.32-1.18-.62-1.77-.92l-.34-.16c-.61-.3-1.22-.59-1.83-.86l-.05,0-1.88-.79L529,265c-.61-.24-1.23-.47-1.85-.69l-.31-.1c-.63-.22-1.26-.42-1.89-.61l-.06,0q-1-.3-1.95-.54l-.33-.09c-.64-.16-1.29-.31-1.93-.45l-.26-.05c-.65-.14-1.31-.27-2-.38h0l-2-.3-.29,0c-.66-.09-1.32-.16-2-.22H514c-.68-.06-1.36-.11-2-.14h0q-1,0-2-.06h-.25l-2,0h-.1c-.7,0-1.4.06-2.09.11h0c-.68.05-1.37.12-2.05.19a54.68,54.68,0,0,0-21.48,7.09c-3.11,5.61-5.49,10.72-6.29,12.49-.57.73-.86,1.14-.86,1.14,49.88-33.36,89,29.52,89,29.53h0c-.08-1-.18-2.07-.32-3.1l0-.23c-.06-.43-.12-.86-.19-1.29,0-.09,0-.19,0-.28-.08-.44-.15-.88-.24-1.31l0-.19c-.2-1-.42-2-.67-3a.74.74,0,0,1,0-.14c-.11-.44-.23-.87-.35-1.31l-.09-.29q-.17-.6-.36-1.2c0-.09,0-.18-.08-.28-.15-.45-.3-.91-.46-1.36l0-.06c-.34-1-.7-1.93-1.1-2.88l-.12-.29c-.15-.37-.31-.74-.48-1.1l-.15-.34c-.17-.37-.34-.74-.52-1.11l-.12-.26c-.45-.91-.92-1.82-1.42-2.71l-.15-.25-.6-1.05c-.08-.12-.15-.24-.22-.36-.2-.31-.39-.63-.59-1-.08-.11-.15-.23-.23-.35-.23-.35-.46-.71-.7-1.06a2.14,2.14,0,0,1-.13-.19c-.29-.43-.59-.84-.89-1.26l-.12-.16c-.26-.35-.52-.7-.79-1l-.27-.35c-.22-.28-.45-.57-.68-.84s-.2-.26-.31-.38q-.35-.42-.72-.84l-.27-.32c-.67-.76-1.37-1.5-2.09-2.23l-.31-.31-.78-.76-.39-.37-.77-.7-.38-.35-.9-.78-.27-.22-1.2-1-.29-.22-.95-.72-.44-.32-.85-.61-.46-.32-.91-.6-.41-.28c-.45-.28-.89-.56-1.35-.83h0C536.82,268.7,536.21,268.36,535.61,268Z"/><path class="cls-15" d="M477.05,279.93c2,1.42.78,6.65-2.76,11.69s-8.05,8-10.07,6.55-.77-6.65,2.77-11.68S475,278.51,477.05,279.93Z"/><path class="cls-16" d="M476.24,308a75.35,75.35,0,0,0,33.12,36.42c3.59,2,7.11-3.38,3.5-5.36a69.71,69.71,0,0,1-30.94-34C480.3,301.25,474.62,304.21,476.24,308Z"/><path class="cls-16" d="M517.74,346c-.21,4.11,6.18,4.44,6.39.32S517.94,341.83,517.74,346Z"/><rect class="cls-17" x="234.43" y="144.44" width="7.36" height="237.6" transform="translate(-79.87 105.5) rotate(-21.49)"/><path class="cls-14" d="M320.63,156.54A122.72,122.72,0,0,0,105,241.42Z"/><path class="cls-18" d="M232.7,191.15c-9-16.82-25.65-44.12-50-68.74-1,34.63,5.37,66,10.25,84.4Z"/><path class="cls-18" d="M130.9,195.11a175.87,175.87,0,0,0-3.82,37.61l28.77-11.32a132.71,132.71,0,0,1,1.11-31c4.15-28.62,25.71-68,25.71-68C147.28,144.88,137.54,165.85,130.9,195.11Z"/><path class="cls-18" d="M270.1,140.31c-24.79-16.88-46.21-25.58-87.43-17.9,0,0,42.59,14.09,65.13,32.2a133,133,0,0,1,22,21.95l28.77-11.32A175.46,175.46,0,0,0,270.1,140.31Z"/><path class="cls-19" d="M105,241.42S108.13,253,120.16,249s6.92-16.24,6.92-16.24Z"/><path class="cls-3" d="M127.08,232.72S130.29,245,145,239.23s10.9-17.83,10.9-17.83Z"/><path class="cls-19" d="M155.85,221.4s4.86,11.48,21.79,5,15.28-19.55,15.28-19.55Z"/><path class="cls-19" d="M320.63,156.54s5.59,10.61-6,15.86-16.13-7.16-16.13-7.16Z"/><path class="cls-3" d="M298.54,165.24s6,11.16-8.64,16.93-20.13-5.61-20.13-5.61Z"/><path class="cls-19" d="M269.77,176.56S274,188.27,257.21,195s-24.51-3.89-24.51-3.89Z"/><path class="cls-3" d="M192.92,206.81s5.11,12.9,25.21,5.68,14.57-21.34,14.57-21.34Z"/><path class="cls-17" d="M180.34,124l-.13-5.21a1,1,0,0,1,1.82-.71l3.47,4A7.62,7.62,0,0,1,180.34,124Z"/><path class="cls-16" d="M129.07,171.68a1.68,1.68,0,0,0-2.35.29,105.86,105.86,0,0,0-14,34.25,102.74,102.74,0,0,0-1.67,10.47c-.24,2.14,3.08,2.66,3.31.51a102.24,102.24,0,0,1,10-34.28,100.08,100.08,0,0,1,5-8.88A1.72,1.72,0,0,0,129.07,171.68Z"/><path class="cls-16" d="M114.05,222.79a1.68,1.68,0,0,0-3,.75c-.25,1.34-.5,2.69-.76,4a1.71,1.71,0,0,0,.32,1.26,1.66,1.66,0,0,0,1.08.65,1.7,1.7,0,0,0,1.92-1.4c.25-1.34.51-2.68.76-4A1.7,1.7,0,0,0,114.05,222.79Z"/><path class="cls-16" d="M309.22,152a89.42,89.42,0,0,0-25.15-18.56c-1.94-1-3.28,2.12-1.34,3.08A85,85,0,0,1,306.53,154a1.73,1.73,0,0,0,2.35.34A1.7,1.7,0,0,0,309.22,152Z"/><circle class="cls-20" cx="263.95" cy="426.5" r="10.32"/><circle class="cls-20" cx="330.11" cy="426.5" r="10.32"/><path class="cls-20" d="M319.51,279.94a2.13,2.13,0,0,1-2.13-2.13V220H279.14v56.51a2.13,2.13,0,0,1-4.26,0V217.85a2.14,2.14,0,0,1,2.13-2.13h42.5a2.13,2.13,0,0,1,2.13,2.13v60A2.13,2.13,0,0,1,319.51,279.94Z"/><rect class="cls-6" x="238.62" y="265.63" width="119.28" height="160" rx="21.66"/><path class="cls-21" d="M336.25,421.8h-3.42V421h3.42l.83,0,0,.85Zm-7.68,0H324.3V421h4.27Zm-8.53,0h-4.26V421H320Zm-8.53,0h-4.26V421h4.26Zm-8.52,0h-4.27V421H303Zm-8.53,0H290.2V421h4.26Zm-8.53,0h-4.26V421h4.26Zm-8.52,0h-4.27V421h4.27Zm-8.53,0h-4.27V421h4.27Zm-8.53,0h-.07a18,18,0,0,1-4.33-.53l.21-.83a16.73,16.73,0,0,0,4.12.51Zm81.06-.77-.25-.81a16.91,16.91,0,0,0,3.79-1.68l.44.73A17.68,17.68,0,0,1,341.41,421Zm-89.52-1.33a18,18,0,0,1-3.56-2.51l.57-.63a17.43,17.43,0,0,0,3.39,2.39Zm96.93-3.11-.6-.6a16.92,16.92,0,0,0,2.57-3.27l.72.44A17.47,17.47,0,0,1,348.82,416.59ZM245.48,413.9a17.35,17.35,0,0,1-2-3.89l.8-.29a16.92,16.92,0,0,0,1.87,3.7Zm107.81-4.71-.81-.25a17.2,17.2,0,0,0,.72-4.09l.85,0A17.88,17.88,0,0,1,353.29,409.19Zm-110.75-3.42a17.93,17.93,0,0,1-.09-1.8v-2.51h.85V404a16.18,16.18,0,0,0,.09,1.71Zm111.53-5.16h-.85v-4.26h.85ZM243.3,397.2h-.85v-4.26h.85Zm110.77-5.12h-.85v-4.26h.85ZM243.3,388.67h-.85v-4.26h.85Zm110.77-5.11h-.85v-4.27h.85ZM243.3,380.14h-.85v-4.26h.85ZM354.07,375h-.85v-4.26h.85ZM243.3,371.62h-.85v-4.27h.85Zm110.77-5.12h-.85v-4.26h.85ZM243.3,363.09h-.85v-4.26h.85ZM354.07,358h-.85v-4.26h.85ZM243.3,354.56h-.85V350.3h.85Zm110.77-5.11h-.85v-4.27h.85ZM243.3,346h-.85v-4.27h.85Zm110.77-5.12h-.85v-4.26h.85ZM243.3,337.51h-.85v-4.26h.85Zm110.77-5.12h-.85v-4.26h.85ZM243.3,329h-.85v-4.26h.85Zm110.77-5.11h-.85V319.6h.85ZM243.3,320.45h-.85v-4.26h.85Zm110.77-5.11h-.85v-4.27h.85ZM243.3,311.93h-.85v-4.27h.85Zm110.77-5.12h-.85v-4.26h.85ZM243.3,303.4h-.85v-4.26h.85Zm110.77-5.12h-.85V294h.85ZM243.3,294.87h-.85v-4.26h.85Zm110.77-5.11h-.85v-2.47a16.8,16.8,0,0,0-.09-1.75l.85-.09c.06.61.09,1.22.09,1.84Zm-110.74-3.39-.85-.05a17.25,17.25,0,0,1,.76-4.28l.81.25A17,17,0,0,0,243.33,286.37ZM352.2,281.5a16.67,16.67,0,0,0-1.88-3.69l.7-.48a17.32,17.32,0,0,1,2,3.88Zm-106.44-3-.73-.44a18.1,18.1,0,0,1,2.69-3.42l.6.6A17.11,17.11,0,0,0,245.76,278.5Zm101.84-3.82a17.37,17.37,0,0,0-3.4-2.39l.4-.75a18.78,18.78,0,0,1,3.57,2.5Zm-96-2-.44-.73a18,18,0,0,1,4-1.76l.25.82A16.51,16.51,0,0,0,251.6,272.7Zm88.73-1.89a17,17,0,0,0-4.08-.5l0-.85h0a18.1,18.1,0,0,1,4.28.52Zm-80.85-.48,0-.85.84,0h3.45v.85h-3.45Zm72.46,0h-4.26v-.85h4.26Zm-8.52,0h-4.27v-.85h4.27Zm-8.53,0h-4.26v-.85h4.26Zm-8.53,0H302.1v-.85h4.26Zm-8.52,0h-4.27v-.85h4.27Zm-8.53,0H285v-.85h4.27Zm-8.53,0h-4.26v-.85h4.26Zm-8.53,0H268v-.85h4.26Z"/><rect class="cls-7" x="256.09" y="340.85" width="84.34" height="65.45" rx="10.23"/><path class="cls-20" d="M340.43,355.92H256.09a.85.85,0,0,1,0-1.7h84.34a.85.85,0,1,1,0,1.7Z"/><path class="cls-20" d="M332,365.64a.85.85,0,0,1-.85-.85v-9.72a.85.85,0,0,1,1.7,0v9.72A.85.85,0,0,1,332,365.64Z"/><rect class="cls-7" x="267.29" y="289.1" width="61.94" height="34.84" rx="7.5"/><rect class="cls-20" x="288.46" y="295.77" width="19.6" height="6.09" rx="2.64"/><rect class="cls-6" x="270.03" y="212.25" width="56.47" height="12.19" rx="5.29"/><rect class="cls-16" x="251.22" y="290.11" width="8.13" height="47" rx="3.53"/><rect class="cls-16" x="277.01" y="215.76" width="22.74" height="5.16" rx="2.24"/><rect class="cls-16" x="251.64" y="369.78" width="22.74" height="5.16" rx="2.24" transform="translate(635.38 109.35) rotate(90)"/><path class="cls-20" d="M382.89,340.71a3.19,3.19,0,0,1-3.2-3.19V322.44A13.43,13.43,0,0,1,393.11,309h16.61a13.43,13.43,0,0,1,13.41,13.42V336a3.2,3.2,0,1,1-6.39,0v-13.6a7,7,0,0,0-7-7H393.11a7,7,0,0,0-7,7v15.08A3.2,3.2,0,0,1,382.89,340.71Z"/><rect class="cls-13" x="317.3" y="333.34" width="168.23" height="121.82" rx="22.51"/><circle class="cls-6" cx="384.16" cy="392.88" r="8.42"/><circle class="cls-9" cx="419.97" cy="369.53" r="5.64"/><rect class="cls-20" x="360.65" y="333.34" width="8.95" height="121.82"/><rect class="cls-20" x="433.22" y="333.34" width="8.95" height="121.82"/><rect class="cls-22" x="359.71" y="368.67" width="10.96" height="9.09" rx="2.62"/><line class="cls-22" x1="365.13" y1="368.67" x2="365.13" y2="373.21"/><rect class="cls-22" x="432.22" y="368.67" width="10.96" height="9.09" rx="2.62"/><line class="cls-22" x1="437.64" y1="368.67" x2="437.64" y2="373.21"/><path class="cls-17" d="M322.42,432.61a22.77,22.77,0,0,0-5.12.58v1.42a20.55,20.55,0,0,0,20.55,20.55h7.36A22.79,22.79,0,0,0,322.42,432.61Z"/><path class="cls-17" d="M317.3,360a22.79,22.79,0,0,0,27.48-26.62h-6.93A20.55,20.55,0,0,0,317.3,353.9Z"/><path class="cls-17" d="M452.93,333.34a23,23,0,0,0-.39,4.18,22.79,22.79,0,0,0,33,20.38v-4A20.55,20.55,0,0,0,465,333.34Z"/><path class="cls-17" d="M485.52,435a22.79,22.79,0,0,0-33,20.15H465A20.55,20.55,0,0,0,485.52,435Z"/><rect class="cls-14" x="386.57" y="396.07" width="31.98" height="22.62" rx="4.26" transform="translate(115.55 -88.24) rotate(14.58)"/><path class="cls-23" d="M414.07,421.1a25.41,25.41,0,0,0,.18-5.65,5.61,5.61,0,0,0-.68-2.52,2.25,2.25,0,0,0-2.21-1.14,7.65,7.65,0,0,0,2.62-4.94c.08-1.92-1.29-4-3.2-4.07a3.4,3.4,0,0,0-3.2,2.12,4.48,4.48,0,0,0,.4,3.93,14.92,14.92,0,0,0-6.81,3.83,15.2,15.2,0,0,0-2.86-6.54,5.05,5.05,0,0,0,3.33-3.67,3.44,3.44,0,0,0-2.53-3.94,3.89,3.89,0,0,0-3.8,2.11,11.49,11.49,0,0,0-1.14,4.46,16.17,16.17,0,0,0-9,5.48,3.88,3.88,0,0,0,2.79,4.71l23.43,6.1A3.85,3.85,0,0,0,414.07,421.1Z"/><rect class="cls-24" x="399.03" y="357.59" width="16.96" height="16.96" rx="3.29" transform="translate(-66.73 91.9) rotate(-11.9)"/><rect class="cls-5" x="400.44" y="359" width="14.14" height="14.14" rx="3.29" transform="translate(-66.73 91.9) rotate(-11.9)"/><path class="cls-24" d="M406.3,364.25a2,2,0,1,1-2.4-1.56A2,2,0,0,1,406.3,364.25Z"/><path class="cls-24" d="M411.92,367.76a2,2,0,1,1-2.39-1.56A2,2,0,0,1,411.92,367.76Z"/><rect class="cls-16" x="325.31" y="356.21" width="8.25" height="65.28" rx="3.58"/><path class="cls-12" d="M202.82,347a57.53,57.53,0,1,0,57.53,57.53A57.53,57.53,0,0,0,202.82,347Zm0,85.68A28.16,28.16,0,1,1,231,404.56,28.15,28.15,0,0,1,202.82,432.71Z"/><path class="cls-9" d="M173.58,372.67c3.53,3.14,7.68,6.48,11.3,10.18a28.32,28.32,0,0,1,7-4.22c-3.18-3.45-6.73-6.61-10.18-9.73-4.11-3.72-8.27-7.38-12.45-11a56.91,56.91,0,0,0-6.37,5.33Q168.23,367.92,173.58,372.67Z"/><path class="cls-9" d="M229,353.33q-7,13-15.17,25.3a28.24,28.24,0,0,1,7,4.27Q229,370.62,236,357.58A56.85,56.85,0,0,0,229,353.33Z"/><path class="cls-9" d="M198.85,376.69a27.38,27.38,0,0,1,4-.29,28.76,28.76,0,0,1,4.18.31,102.21,102.21,0,0,1,1.12-29.43c-1.75-.16-3.51-.25-5.3-.25-1,0-2,0-3,.07A114,114,0,0,0,198.85,376.69Z"/><path class="cls-9" d="M224.61,422.38a28.31,28.31,0,0,1-6.1,5.56,145.64,145.64,0,0,0,24.25,18,58.14,58.14,0,0,0,5.59-6.25A138,138,0,0,1,224.61,422.38Z"/><path class="cls-9" d="M250.16,371.88a233.7,233.7,0,0,1-23.37,17.91,28,28,0,0,1,3.28,7.66A246.26,246.26,0,0,0,254.38,379,57.48,57.48,0,0,0,250.16,371.88Z"/><path class="cls-9" d="M230.92,406.19a27.93,27.93,0,0,1-1.66,8.05q15,1.36,30,1.47a58.14,58.14,0,0,0,1-8.2Q245.58,407.45,230.92,406.19Z"/><path class="cls-9" d="M217.3,460.25a130.36,130.36,0,0,1-10.52-27.82,28.73,28.73,0,0,1-4,.28,27.92,27.92,0,0,1-4.51-.36,136.23,136.23,0,0,0,10.55,29.42A57.31,57.31,0,0,0,217.3,460.25Z"/><path class="cls-9" d="M157.13,392.94a57.55,57.55,0,0,1,18,6.37,27.91,27.91,0,0,1,2.72-7.82,62.14,62.14,0,0,0-15.61-5.88,94.91,94.91,0,0,0-13.1-1.83,57.14,57.14,0,0,0-2.42,7.92C150.22,392,153.69,392.34,157.13,392.94Z"/><path class="cls-9" d="M175.16,455a67.09,67.09,0,0,1,14.32-25.65,28.34,28.34,0,0,1-6.61-4.93,74.65,74.65,0,0,0-14.77,26A56.92,56.92,0,0,0,175.16,455Z"/><path class="cls-9" d="M177.94,417.75a28.06,28.06,0,0,1-2.76-7.8,103,103,0,0,0-27.86,9.75,56.27,56.27,0,0,0,2.74,7.8A95.15,95.15,0,0,1,177.94,417.75Z"/><path class="cls-16" d="M175.52,364.58c-8.57,2.36-14.37,10.29-18.2,17.86a52.86,52.86,0,0,0-5.27,27.32c.34,5.27,8.48,4.15,8.14-1.11a44.37,44.37,0,0,1,4.09-21.76c2.94-6.27,7.41-12.81,14.4-14.74C183.76,370.76,180.56,363.19,175.52,364.58Z"/><path class="cls-16" d="M159.31,417.68c-5.29,0-5.3,8.21,0,8.21S164.6,417.68,159.31,417.68Z"/><polygon class="cls-24" points="571.42 449.64 535 439.75 535 342.43 571.42 352.32 571.42 449.64"/><polygon class="cls-5" points="571.42 449.64 607.84 439.75 607.84 342.43 571.42 352.32 571.42 449.64"/><polygon class="cls-24" points="644.26 449.64 607.84 439.75 607.84 342.43 644.26 352.32 644.26 449.64"/><polygon class="cls-11" points="538.04 437.42 538.04 346.41 571.42 355.47 607.84 345.58 641.22 354.64 641.22 445.66 607.84 436.6 571.42 446.49 538.04 437.42"/><path class="cls-11" d="M542.63,391.2c1.6,4.36,8.06,6.14,8.28,10.78.17,3.75-4,6.31-4.84,10a5.84,5.84,0,0,0,9,6c1.67-1.15,2.89-3.24,4.91-3.39,1.62-.12,3,1.11,3.94,2.46a21.82,21.82,0,0,0,2.75,4c2.79,2.62,7.68,1.63,10.23-1.23s3.23-6.93,3.2-10.76c0-3-.39-6.11.77-8.87s4.58-4.86,7.18-3.37c1.83,1,2.46,3.32,3.08,5.34s1.68,4.26,3.73,4.75,3.85-.93,4.81-2.64a22.86,22.86,0,0,0,1.74-5.61c.5-1.9,1.36-3.86,3-4.86,2.69-1.59,6.36.08,8,2.74s1.72,6,1.66,9.08-.22,6.35,1,9.22,4.33,5.21,7.35,4.43c3.6-.93,4.91-5.4,4.81-9.12s-.91-7.7.87-11c1.13-2.09,3.21-3.6,4.08-5.82,1.09-2.8,0-5.93-1.13-8.73l-6.94-17.55c-.88-2.22-1.82-4.54-3.61-6.13a7.9,7.9,0,0,0-9.29-.64c-4.37,2.91-5.13,9.75-9.89,12-3.53,1.63-7.63-.07-11.12-1.79s-7.5-3.53-11.11-2.09c-3.42,1.35-5.42,5.27-9.26,5.72-4.28.51-8.5-3-12.47-4.15-3.48-1-6.62-.22-9.69,1.64s-5.18,6.38-1.2,8.76C544.36,383.48,541.11,387.07,542.63,391.2Z"/><path class="cls-11" d="M607.84,364.27c-1.87,3-3.27,6.56-6.43,8-3.53,1.63-7.63-.07-11.12-1.79s-7.5-3.53-11.11-2.09c-2.94,1.16-4.84,4.23-7.76,5.34v48.82a8.47,8.47,0,0,0,5.52-2.72c2.55-2.85,3.23-6.93,3.2-10.76,0-3-.39-6.11.77-8.87s4.58-4.86,7.18-3.37c1.83,1,2.46,3.32,3.08,5.34s1.68,4.26,3.73,4.75,3.85-.93,4.81-2.64a22.86,22.86,0,0,0,1.74-5.61c.5-1.9,1.36-3.86,3-4.86a4.71,4.71,0,0,1,3.34-.52Z"/><path class="cls-20" d="M471.34,410.95H476a2.27,2.27,0,0,1,2.27,2.27V419a0,0,0,0,1,0,0h-9.24a0,0,0,0,1,0,0v-5.75A2.27,2.27,0,0,1,471.34,410.95Z"/><path class="cls-20" d="M482.48,410.95h4.69a2.27,2.27,0,0,1,2.27,2.27V419a0,0,0,0,1,0,0h-9.24a0,0,0,0,1,0,0v-5.75A2.27,2.27,0,0,1,482.48,410.95Z"/><path class="cls-25" d="M470.49,415.31h80.7a0,0,0,0,1,0,0v46.87a7.23,7.23,0,0,1-7.23,7.23H470.49a7.23,7.23,0,0,1-7.23-7.23V422.53A7.23,7.23,0,0,1,470.49,415.31Z"/><path class="cls-25" d="M551.19,415.31v-4.62a3.32,3.32,0,0,0-3.31-3.32H499.13a3.32,3.32,0,0,0-2.62,1.29l-5.16,6.65Z"/><path class="cls-9" d="M463.26,428.93v34.43a6.05,6.05,0,0,0,6.05,6.05h75.83a6.05,6.05,0,0,0,6.05-6.05V428.93Z"/><rect class="cls-18" x="533.39" y="410.46" width="12.48" height="6.64" rx="1.06"/><circle class="cls-18" cx="501.27" cy="411.79" r="1.33"/><path class="cls-18" d="M508.2,411.79a1.34,1.34,0,1,1-1.34-1.33A1.34,1.34,0,0,1,508.2,411.79Z"/><path class="cls-18" d="M513.79,411.79a1.33,1.33,0,1,1-1.33-1.33A1.34,1.34,0,0,1,513.79,411.79Z"/><rect class="cls-20" x="469.39" y="420.35" width="13.29" height="5.75" rx="2.22"/><rect class="cls-20" x="463.16" y="452.8" width="88.03" height="1.67"/><circle class="cls-12" cx="507.23" cy="442.36" r="17.71"/><circle class="cls-25" cx="507.23" cy="442.36" r="15.07"/><path class="cls-20" d="M512.3,442.36a5.08,5.08,0,1,1-5.07-5.08A5.08,5.08,0,0,1,512.3,442.36Z"/><path class="cls-16" d="M499.67,432.07a12.34,12.34,0,0,0-5.76,9.27,12.08,12.08,0,0,0,4.18,10.14,1.71,1.71,0,0,0,2.37,0,1.69,1.69,0,0,0,0-2.37,8.92,8.92,0,0,1-3.22-7.52,8.77,8.77,0,0,1,4.12-6.62C503.19,433.83,501.51,430.93,499.67,432.07Z"/><rect class="cls-16" x="467.64" y="432.76" width="4.78" height="16.9" rx="2.07"/><rect class="cls-15" x="413.42" y="227.5" width="78.72" height="78.72"/><rect class="cls-20" x="418.64" y="232.73" width="68.26" height="68.26"/><polygon class="cls-6" points="465.39 268.25 486.9 289.76 486.9 270.24 475.15 258.49 465.39 268.25"/><polygon class="cls-24" points="465.39 268.25 446.46 249.31 418.64 277.12 418.64 300.99 446.65 300.99 486.9 300.99 486.9 289.76 465.39 268.25"/><path class="cls-13" d="M468.42,252.12a6.37,6.37,0,1,1-6.37-6.37A6.37,6.37,0,0,1,468.42,252.12Z"/></g></g></svg>